<svg viewBox="" xmlns="http://www.w3.org/2000/svg">
    <symbol id="user" width="24" height="24" viewBox="0 0 24 24" xmlns="http://www.w3.org/2000/svg">
        <path d="M12 12C14.7614 12 17 9.76142 17 7C17 4.23858 14.7614 2 12 2C9.23858 2 7 4.23858 7 7C7 9.76142 9.23858 12 12 12Z" stroke="white" stroke-width="1.5" stroke-linecap="round" stroke-linejoin="round"/>
        <path d="M20.59 22C20.59 18.13 16.74 15 12 15C7.26 15 3.41 18.13 3.41 22" stroke="white" stroke-width="1.5" stroke-linecap="round" stroke-linejoin="round"/>
    </symbol>
    <symbol id="play" width="25" height="24" viewBox="0 0 25 24" fill="none" xmlns="http://www.w3.org/2000/svg">
        <path d="M12.47 2C6.94997 2 2.46997 6.48 2.46997 12C2.46997 17.52 6.94997 22 12.47 22C17.99 22 22.47 17.52 22.47 12C22.47 6.48 18 2 12.47 2ZM15.47 14.23L12.57 15.9C12.21 16.11 11.81 16.21 11.42 16.21C11.02 16.21 10.63 16.11 10.27 15.9C9.54997 15.48 9.11997 14.74 9.11997 13.9V10.55C9.11997 9.72 9.54997 8.97 10.27 8.55C10.99 8.13 11.85 8.13 12.58 8.55L15.48 10.22C16.2 10.64 16.63 11.38 16.63 12.22C16.63 13.06 16.2 13.81 15.47 14.23Z" fill="#30AF5B"/>
    </symbol>
</svg>
