<svg viewBox="" xmlns="http://www.w3.org/2000/svg">
    <symbol id="user" width="24" height="24" viewBox="0 0 24 24" xmlns="http://www.w3.org/2000/svg">
        <path d="M12 12C14.7614 12 17 9.76142 17 7C17 4.23858 14.7614 2 12 2C9.23858 2 7 4.23858 7 7C7 9.76142 9.23858 12 12 12Z" stroke="white" stroke-width="1.5" stroke-linecap="round" stroke-linejoin="round"/>
        <path d="M20.59 22C20.59 18.13 16.74 15 12 15C7.26 15 3.41 18.13 3.41 22" stroke="white" stroke-width="1.5" stroke-linecap="round" stroke-linejoin="round"/>
    </symbol>
    <symbol id="play" width="25" height="24" viewBox="0 0 25 24" fill="none" xmlns="http://www.w3.org/2000/svg">
        <path d="M12.47 2C6.94997 2 2.46997 6.48 2.46997 12C2.46997 17.52 6.94997 22 12.47 22C17.99 22 22.47 17.52 22.47 12C22.47 6.48 18 2 12.47 2ZM15.47 14.23L12.57 15.9C12.21 16.11 11.81 16.21 11.42 16.21C11.02 16.21 10.63 16.11 10.27 15.9C9.54997 15.48 9.11997 14.74 9.11997 13.9V10.55C9.11997 9.72 9.54997 8.97 10.27 8.55C10.99 8.13 11.85 8.13 12.58 8.55L15.48 10.22C16.2 10.64 16.63 11.38 16.63 12.22C16.63 13.06 16.2 13.81 15.47 14.23Z" fill="#30AF5B"/>
    </symbol>
    <symbol id="android" width="24" height="24" viewBox="0 0 24 24" fill="none" xmlns="http://www.w3.org/2000/svg">
        <path d="M21.4 12.95L18.62 14.34C18.43 14.44 18.2 14.4 18.04 14.25L16.17 12.38C15.97 12.18 15.97 11.87 16.17 11.67L18.07 9.77002C18.22 9.62002 18.46 9.58002 18.65 9.68002L21.4 11.06C22.19 11.44 22.19 12.56 21.4 12.95Z" fill="white"/>
        <path d="M16.3 8.48996C16.61 8.63996 16.67 9.04998 16.43 9.28998L14.76 10.96L14.05 11.67C13.85 11.87 13.54 11.87 13.34 11.67L6.19997 4.52997C5.79997 4.12997 6.26997 3.47998 6.77997 3.72998L16.3 8.48996Z" fill="white"/>
        <path d="M2 20.1501V3.48008C2 3.04008 2.53 2.81007 2.85 3.12007L11.62 11.6301C11.83 11.8301 11.82 12.1601 11.61 12.3601L2.84 20.5201C2.52 20.8201 2 20.5901 2 20.1501Z" fill="white"/>
        <path d="M16.2699 15.52L6.87995 20.22C6.36995 20.47 5.89995 19.82 6.29995 19.42L13.3499 12.37C13.5499 12.17 13.8599 12.17 14.0599 12.37L16.4099 14.72C16.6399 14.96 16.5699 15.37 16.2699 15.52Z" fill="white"/>
    </symbol>
    <symbol id="apple" width="24" height="24" viewBox="0 0 24 24" fill="none" xmlns="http://www.w3.org/2000/svg">
        <path fill-rule="evenodd" clip-rule="evenodd" d="M19.1 19.16C19.69 18.26 19.91 17.8 20.36 16.79C17.04 15.53 16.51 10.8 19.79 8.98999C18.79 7.72999 17.38 7 16.05 7C15.09 7 14.43 7.25001 13.84 7.48001C13.34 7.67001 12.89 7.84 12.33 7.84C11.73 7.84 11.2 7.65001 10.64 7.45001C10.03 7.23001 9.39 7 8.59 7C7.1 7 5.51001 7.91 4.50001 9.47C3.08001 11.67 3.33001 15.79 5.62001 19.31C6.44001 20.57 7.54001 21.98 8.97001 22C9.57001 22.01 9.96 21.83 10.39 21.64C10.88 21.42 11.41 21.18 12.34 21.18C13.27 21.17 13.79 21.42 14.28 21.64C14.7 21.83 15.08 22.01 15.67 22C17.12 21.98 18.28 20.42 19.1 19.16Z" fill="#30AF5B"/>
        <path fill-rule="evenodd" clip-rule="evenodd" d="M15.84 2C16 3.1 15.55 4.19001 14.96 4.95001C14.33 5.77001 13.23 6.41 12.17 6.37C11.98 5.31 12.47 4.21999 13.07 3.48999C13.74 2.68999 14.87 2.07 15.84 2Z" fill="#30AF5B"/>
    </symbol>

</svg>
